<?xml version="1.0" encoding="UTF-8" standalone="no"?>
<!-- Created with Inkscape (http://www.inkscape.org/) -->

<svg
   xmlns:dc="http://purl.org/dc/elements/1.1/"
   xmlns:cc="http://creativecommons.org/ns#"
   xmlns:rdf="http://www.w3.org/1999/02/22-rdf-syntax-ns#"
   xmlns:svg="http://www.w3.org/2000/svg"
   xmlns="http://www.w3.org/2000/svg"
   xmlns:sodipodi="http://sodipodi.sourceforge.net/DTD/sodipodi-0.dtd"
   xmlns:inkscape="http://www.inkscape.org/namespaces/inkscape"
   width="32.309353"
   height="32.000027"
   viewBox="1 1 32.309353 32.000027"
   version="1.1"
   id="svg8"
   inkscape:version="0.92.3 (2405546, 2018-03-11)"
   sodipodi:docname="insder.svg"
   inkscape:export-filename="C:\Users\wladi\Documents\Apocalipsis\htdocs\resources\sprites\in_der.png"
   inkscape:export-xdpi="96"
   inkscape:export-ydpi="96">
  <defs
     id="defs2" />
  <sodipodi:namedview
     id="base"
     pagecolor="#ffffff"
     bordercolor="#666666"
     borderopacity="1.0"
     inkscape:pageopacity="0.0"
     inkscape:pageshadow="2"
     inkscape:zoom="16"
     inkscape:cx="11.541987"
     inkscape:cy="11.646258"
     inkscape:document-units="px"
     inkscape:current-layer="layer1"
     showgrid="true"
     units="px"
     inkscape:snap-bbox="true"
     inkscape:bbox-nodes="false"
     inkscape:snap-global="true"
     inkscape:snap-bbox-midpoints="true"
     inkscape:window-width="1920"
     inkscape:window-height="1017"
     inkscape:window-x="1912"
     inkscape:window-y="-8"
     inkscape:window-maximized="1"
     fit-margin-top="0"
     fit-margin-left="0"
     fit-margin-right="0"
     fit-margin-bottom="0">
    <inkscape:grid
       type="xygrid"
       id="grid815"
       originx="-33.163009"
       originy="-34.527613" />
  </sodipodi:namedview>
  <metadata
     id="metadata5">
    <rdf:RDF>
      <cc:Work
         rdf:about="">
        <dc:format>image/svg+xml</dc:format>
        <dc:type
           rdf:resource="http://purl.org/dc/dcmitype/StillImage" />
        <dc:title></dc:title>
      </cc:Work>
    </rdf:RDF>
  </metadata>
  <g
     inkscape:label="Capa 1"
     inkscape:groupmode="layer"
     id="layer1"
     transform="translate(-33.163008,-304.01402)"
     style="display:inline">
    <rect
       style="fill:#000000;fill-opacity:1;stroke:none;stroke-width:5;stroke-linejoin:bevel;stroke-miterlimit:4;stroke-dasharray:none;stroke-opacity:1"
       id="rect821"
       width="20"
       height="20.000004"
       x="40.472366"
       y="311.01404" />
    <path
       style="fill:#282828;fill-opacity:1;stroke:#161616;stroke-width:1;stroke-linejoin:bevel;stroke-miterlimit:4;stroke-dasharray:none;stroke-opacity:1"
       id="path844"
       sodipodi:type="arc"
       sodipodi:cx="50.472366"
       sodipodi:cy="311.01404"
       sodipodi:rx="5"
       sodipodi:ry="5"
       sodipodi:start="0"
       sodipodi:end="3.1419964"
       sodipodi:open="true"
       d="m 55.472366,311.01404 a 5,5 0 0 1 -2.500582,4.33046 5,5 0 0 1 -5.000583,-0.001 5,5 0 0 1 -2.498834,-4.33147" />
    <g
       id="g1248"
       transform="rotate(90,53.499994,335.51404)">
      <path
         transform="scale(-1,1)"
         d="m -54.999925,331.05603 a 1.1546795,1.1546795 0 0 1 1.167415,-1.14136 1.1546795,1.1546795 0 0 1 1.141801,1.16699 1.1546795,1.1546795 0 0 1 -1.166568,1.14223 1.1546795,1.1546795 0 0 1 -1.142667,-1.16614 l 1.154622,0.0115 z"
         sodipodi:end="3.1515759"
         sodipodi:start="3.1530595"
         sodipodi:ry="1.1546795"
         sodipodi:rx="1.1546795"
         sodipodi:cy="331.06927"
         sodipodi:cx="-53.845322"
         sodipodi:type="arc"
         id="path1012-85-4"
         style="fill:#363636;fill-opacity:1;stroke:none;stroke-width:0.76978648;stroke-linejoin:bevel;stroke-miterlimit:4;stroke-dasharray:none;stroke-opacity:1" />
      <path
         transform="scale(-1,1)"
         d="m -54.999925,334.05603 a 1.1546795,1.1546795 0 0 1 1.167415,-1.14136 1.1546795,1.1546795 0 0 1 1.141801,1.16699 1.1546795,1.1546795 0 0 1 -1.166568,1.14223 1.1546795,1.1546795 0 0 1 -1.142667,-1.16614 l 1.154622,0.0115 z"
         sodipodi:end="3.1515759"
         sodipodi:start="3.1530595"
         sodipodi:ry="1.1546795"
         sodipodi:rx="1.1546795"
         sodipodi:cy="334.06927"
         sodipodi:cx="-53.845322"
         sodipodi:type="arc"
         id="path1012-4-4-7"
         style="fill:#363636;fill-opacity:1;stroke:none;stroke-width:0.76978648;stroke-linejoin:bevel;stroke-miterlimit:4;stroke-dasharray:none;stroke-opacity:1" />
      <rect
         transform="scale(-1,1)"
         y="333.54166"
         x="-54"
         height="1"
         width="5"
         id="rect848-7-2-20"
         style="fill:#292929;fill-opacity:1;stroke:none;stroke-width:1;stroke-linejoin:bevel;stroke-miterlimit:4;stroke-dasharray:none;stroke-opacity:1" />
      <path
         transform="scale(-1,1)"
         d="m -54.999925,337.05603 a 1.1546795,1.1546795 0 0 1 1.167415,-1.14136 1.1546795,1.1546795 0 0 1 1.141801,1.16699 1.1546795,1.1546795 0 0 1 -1.166568,1.14223 1.1546795,1.1546795 0 0 1 -1.142667,-1.16614 l 1.154622,0.0115 z"
         sodipodi:end="3.1515759"
         sodipodi:start="3.1530595"
         sodipodi:ry="1.1546795"
         sodipodi:rx="1.1546795"
         sodipodi:cy="337.06927"
         sodipodi:cx="-53.845322"
         sodipodi:type="arc"
         id="path1012-9-0-7"
         style="fill:#363636;fill-opacity:1;stroke:none;stroke-width:0.76978648;stroke-linejoin:bevel;stroke-miterlimit:4;stroke-dasharray:none;stroke-opacity:1" />
      <path
         transform="scale(-1,1)"
         d="m -54.999925,340.05603 a 1.1546795,1.1546795 0 0 1 1.167415,-1.14136 1.1546795,1.1546795 0 0 1 1.141801,1.16699 1.1546795,1.1546795 0 0 1 -1.166568,1.14223 1.1546795,1.1546795 0 0 1 -1.142667,-1.16614 l 1.154622,0.0115 z"
         sodipodi:end="3.1515759"
         sodipodi:start="3.1530595"
         sodipodi:ry="1.1546795"
         sodipodi:rx="1.1546795"
         sodipodi:cy="340.06927"
         sodipodi:cx="-53.845322"
         sodipodi:type="arc"
         id="path1012-4-2-3-4"
         style="fill:#363636;fill-opacity:1;stroke:none;stroke-width:0.76978648;stroke-linejoin:bevel;stroke-miterlimit:4;stroke-dasharray:none;stroke-opacity:1" />
      <rect
         transform="scale(-1,1)"
         y="339.54166"
         x="-54"
         height="1"
         width="5"
         id="rect848-7-8-1-3"
         style="fill:#292929;fill-opacity:1;stroke:none;stroke-width:1;stroke-linejoin:bevel;stroke-miterlimit:4;stroke-dasharray:none;stroke-opacity:1" />
      <rect
         transform="scale(-1,1)"
         y="336.54166"
         x="-54"
         height="1"
         width="5"
         id="rect848-79-8-5"
         style="fill:#292929;fill-opacity:1;stroke:none;stroke-width:1;stroke-linejoin:bevel;stroke-miterlimit:4;stroke-dasharray:none;stroke-opacity:1" />
      <path
         transform="scale(-1,1)"
         d="m -54.999925,343.05603 a 1.1546795,1.1546795 0 0 1 1.167415,-1.14136 1.1546795,1.1546795 0 0 1 1.141801,1.16699 1.1546795,1.1546795 0 0 1 -1.166568,1.14223 1.1546795,1.1546795 0 0 1 -1.142667,-1.16614 l 1.154622,0.0115 z"
         sodipodi:end="3.1515759"
         sodipodi:start="3.1530595"
         sodipodi:ry="1.1546795"
         sodipodi:rx="1.1546795"
         sodipodi:cy="343.06927"
         sodipodi:cx="-53.845322"
         sodipodi:type="arc"
         id="path1012-8-0-8"
         style="fill:#363636;fill-opacity:1;stroke:none;stroke-width:0.76978648;stroke-linejoin:bevel;stroke-miterlimit:4;stroke-dasharray:none;stroke-opacity:1" />
      <path
         transform="scale(-1,1)"
         d="m -54.999925,346.05603 a 1.1546795,1.1546795 0 0 1 1.167415,-1.14136 1.1546795,1.1546795 0 0 1 1.141801,1.16699 1.1546795,1.1546795 0 0 1 -1.166568,1.14223 1.1546795,1.1546795 0 0 1 -1.142667,-1.16614 l 1.154622,0.0115 z"
         sodipodi:end="3.1515759"
         sodipodi:start="3.1530595"
         sodipodi:ry="1.1546795"
         sodipodi:rx="1.1546795"
         sodipodi:cy="346.06927"
         sodipodi:cx="-53.845322"
         sodipodi:type="arc"
         id="path1012-4-7-0-4"
         style="fill:#363636;fill-opacity:1;stroke:none;stroke-width:0.76978648;stroke-linejoin:bevel;stroke-miterlimit:4;stroke-dasharray:none;stroke-opacity:1" />
      <rect
         transform="scale(-1,1)"
         y="345.54166"
         x="-54"
         height="1"
         width="5"
         id="rect848-7-3-3-7"
         style="fill:#292929;fill-opacity:1;stroke:none;stroke-width:1;stroke-linejoin:bevel;stroke-miterlimit:4;stroke-dasharray:none;stroke-opacity:1" />
      <rect
         transform="scale(-1,1)"
         y="342.54166"
         x="-54"
         height="1"
         width="5"
         id="rect848-2-3-0"
         style="fill:#292929;fill-opacity:1;stroke:none;stroke-width:1;stroke-linejoin:bevel;stroke-miterlimit:4;stroke-dasharray:none;stroke-opacity:1" />
      <rect
         transform="scale(-1,1)"
         y="330.54163"
         x="-54"
         height="1"
         width="5"
         id="rect848-8-9"
         style="fill:#292929;fill-opacity:1;stroke:none;stroke-width:1;stroke-linejoin:bevel;stroke-miterlimit:4;stroke-dasharray:none;stroke-opacity:1" />
    </g>
    <path
       style="fill:#363636;fill-opacity:1;stroke:none;stroke-width:0.76978648;stroke-linejoin:bevel;stroke-miterlimit:4;stroke-dasharray:none;stroke-opacity:1"
       id="path1012"
       sodipodi:type="arc"
       sodipodi:cx="35.317688"
       sodipodi:cy="313.54166"
       sodipodi:rx="1.1546795"
       sodipodi:ry="1.1546795"
       sodipodi:start="3.1530595"
       sodipodi:end="3.1515759"
       d="m 34.163084,313.52842 a 1.1546795,1.1546795 0 0 1 1.167416,-1.14137 1.1546795,1.1546795 0 0 1 1.141801,1.16699 1.1546795,1.1546795 0 0 1 -1.166569,1.14223 1.1546795,1.1546795 0 0 1 -1.142666,-1.16614 l 1.154622,0.0115 z" />
    <rect
       style="fill:#292929;fill-opacity:1;stroke:none;stroke-width:1;stroke-linejoin:bevel;stroke-miterlimit:4;stroke-dasharray:none;stroke-opacity:1"
       id="rect848"
       width="5"
       height="1"
       x="35.472366"
       y="313.01404" />
    <path
       style="display:inline;fill:#363636;fill-opacity:1;stroke:none;stroke-width:0.76978648;stroke-linejoin:bevel;stroke-miterlimit:4;stroke-dasharray:none;stroke-opacity:1"
       id="path1012-4"
       sodipodi:type="arc"
       sodipodi:cx="35.627033"
       sodipodi:cy="316.54166"
       sodipodi:rx="1.1546795"
       sodipodi:ry="1.1546795"
       sodipodi:start="3.1530595"
       sodipodi:end="3.1515759"
       d="m 34.47243,316.52842 a 1.1546795,1.1546795 0 0 1 1.167415,-1.14137 1.1546795,1.1546795 0 0 1 1.141801,1.16699 1.1546795,1.1546795 0 0 1 -1.166568,1.14223 1.1546795,1.1546795 0 0 1 -1.142667,-1.16614 l 1.154622,0.0115 z" />
    <rect
       style="display:inline;fill:#292929;fill-opacity:1;stroke:none;stroke-width:1;stroke-linejoin:bevel;stroke-miterlimit:4;stroke-dasharray:none;stroke-opacity:1"
       id="rect848-7"
       width="5"
       height="1"
       x="35.472363"
       y="316.01401" />
    <path
       style="display:inline;fill:#363636;fill-opacity:1;stroke:none;stroke-width:0.76978648;stroke-linejoin:bevel;stroke-miterlimit:4;stroke-dasharray:none;stroke-opacity:1"
       id="path1012-9"
       sodipodi:type="arc"
       sodipodi:cx="35.627033"
       sodipodi:cy="319.54166"
       sodipodi:rx="1.1546795"
       sodipodi:ry="1.1546795"
       sodipodi:start="3.1530595"
       sodipodi:end="3.1515759"
       d="m 34.47243,319.52842 a 1.1546795,1.1546795 0 0 1 1.167415,-1.14137 1.1546795,1.1546795 0 0 1 1.141801,1.16699 1.1546795,1.1546795 0 0 1 -1.166568,1.14223 1.1546795,1.1546795 0 0 1 -1.142667,-1.16614 l 1.154622,0.0115 z" />
    <path
       style="display:inline;fill:#363636;fill-opacity:1;stroke:none;stroke-width:0.76978648;stroke-linejoin:bevel;stroke-miterlimit:4;stroke-dasharray:none;stroke-opacity:1"
       id="path1012-4-2"
       sodipodi:type="arc"
       sodipodi:cx="35.627033"
       sodipodi:cy="322.54166"
       sodipodi:rx="1.1546795"
       sodipodi:ry="1.1546795"
       sodipodi:start="3.1530595"
       sodipodi:end="3.1515759"
       d="m 34.47243,322.52842 a 1.1546795,1.1546795 0 0 1 1.167415,-1.14137 1.1546795,1.1546795 0 0 1 1.141801,1.16699 1.1546795,1.1546795 0 0 1 -1.166568,1.14223 1.1546795,1.1546795 0 0 1 -1.142667,-1.16614 l 1.154622,0.0115 z" />
    <rect
       style="display:inline;fill:#292929;fill-opacity:1;stroke:none;stroke-width:1;stroke-linejoin:bevel;stroke-miterlimit:4;stroke-dasharray:none;stroke-opacity:1"
       id="rect848-7-8"
       width="5"
       height="1"
       x="35.472363"
       y="322.01401" />
    <rect
       style="display:inline;fill:#292929;fill-opacity:1;stroke:none;stroke-width:1;stroke-linejoin:bevel;stroke-miterlimit:4;stroke-dasharray:none;stroke-opacity:1"
       id="rect848-79"
       width="5"
       height="1"
       x="35.472363"
       y="319.01401" />
    <path
       style="display:inline;fill:#363636;fill-opacity:1;stroke:none;stroke-width:0.76978648;stroke-linejoin:bevel;stroke-miterlimit:4;stroke-dasharray:none;stroke-opacity:1"
       id="path1012-8"
       sodipodi:type="arc"
       sodipodi:cx="35.627033"
       sodipodi:cy="325.54166"
       sodipodi:rx="1.1546795"
       sodipodi:ry="1.1546795"
       sodipodi:start="3.1530595"
       sodipodi:end="3.1515759"
       d="m 34.47243,325.52842 a 1.1546795,1.1546795 0 0 1 1.167415,-1.14137 1.1546795,1.1546795 0 0 1 1.141801,1.16699 1.1546795,1.1546795 0 0 1 -1.166568,1.14223 1.1546795,1.1546795 0 0 1 -1.142667,-1.16614 l 1.154622,0.0115 z" />
    <path
       style="display:inline;fill:#363636;fill-opacity:1;stroke:none;stroke-width:0.76978648;stroke-linejoin:bevel;stroke-miterlimit:4;stroke-dasharray:none;stroke-opacity:1"
       id="path1012-4-7"
       sodipodi:type="arc"
       sodipodi:cx="35.627033"
       sodipodi:cy="328.54166"
       sodipodi:rx="1.1546795"
       sodipodi:ry="1.1546795"
       sodipodi:start="3.1530595"
       sodipodi:end="3.1515759"
       d="m 34.47243,328.52842 a 1.1546795,1.1546795 0 0 1 1.167415,-1.14137 1.1546795,1.1546795 0 0 1 1.141801,1.16699 1.1546795,1.1546795 0 0 1 -1.166568,1.14223 1.1546795,1.1546795 0 0 1 -1.142667,-1.16614 l 1.154622,0.0115 z" />
    <rect
       style="display:inline;fill:#292929;fill-opacity:1;stroke:none;stroke-width:1;stroke-linejoin:bevel;stroke-miterlimit:4;stroke-dasharray:none;stroke-opacity:1"
       id="rect848-7-3"
       width="5"
       height="1"
       x="35.472363"
       y="328.01401" />
    <rect
       style="display:inline;fill:#292929;fill-opacity:1;stroke:none;stroke-width:1;stroke-linejoin:bevel;stroke-miterlimit:4;stroke-dasharray:none;stroke-opacity:1"
       id="rect848-2"
       width="5"
       height="1"
       x="35.472363"
       y="325.01401" />
    <path
       style="display:inline;fill:#363636;fill-opacity:1;stroke:none;stroke-width:0.76978648;stroke-linejoin:bevel;stroke-miterlimit:4;stroke-dasharray:none;stroke-opacity:1"
       id="path1012-85"
       sodipodi:type="arc"
       sodipodi:cx="-65.31768"
       sodipodi:cy="313.54166"
       sodipodi:rx="1.1546795"
       sodipodi:ry="1.1546795"
       sodipodi:start="3.1530595"
       sodipodi:end="3.1515759"
       d="m -66.472284,313.52842 a 1.1546795,1.1546795 0 0 1 1.167416,-1.14137 1.1546795,1.1546795 0 0 1 1.141801,1.16699 1.1546795,1.1546795 0 0 1 -1.166569,1.14223 1.1546795,1.1546795 0 0 1 -1.142666,-1.16614 l 1.154622,0.0115 z"
       transform="scale(-1,1)" />
    <path
       style="display:inline;fill:#363636;fill-opacity:1;stroke:none;stroke-width:0.76978648;stroke-linejoin:bevel;stroke-miterlimit:4;stroke-dasharray:none;stroke-opacity:1"
       id="path1012-4-4"
       sodipodi:type="arc"
       sodipodi:cx="-65.31768"
       sodipodi:cy="316.54166"
       sodipodi:rx="1.1546795"
       sodipodi:ry="1.1546795"
       sodipodi:start="3.1530595"
       sodipodi:end="3.1515759"
       d="m -66.472284,316.52842 a 1.1546795,1.1546795 0 0 1 1.167416,-1.14137 1.1546795,1.1546795 0 0 1 1.141801,1.16699 1.1546795,1.1546795 0 0 1 -1.166569,1.14223 1.1546795,1.1546795 0 0 1 -1.142666,-1.16614 l 1.154622,0.0115 z"
       transform="scale(-1,1)" />
    <rect
       style="display:inline;fill:#292929;fill-opacity:1;stroke:none;stroke-width:1;stroke-linejoin:bevel;stroke-miterlimit:4;stroke-dasharray:none;stroke-opacity:1"
       id="rect848-7-2"
       width="5"
       height="1"
       x="-65.472359"
       y="316.01401"
       transform="scale(-1,1)" />
    <path
       style="display:inline;fill:#363636;fill-opacity:1;stroke:none;stroke-width:0.76978648;stroke-linejoin:bevel;stroke-miterlimit:4;stroke-dasharray:none;stroke-opacity:1"
       id="path1012-9-0"
       sodipodi:type="arc"
       sodipodi:cx="-65.31768"
       sodipodi:cy="319.54166"
       sodipodi:rx="1.1546795"
       sodipodi:ry="1.1546795"
       sodipodi:start="3.1530595"
       sodipodi:end="3.1515759"
       d="m -66.472284,319.52842 a 1.1546795,1.1546795 0 0 1 1.167416,-1.14137 1.1546795,1.1546795 0 0 1 1.141801,1.16699 1.1546795,1.1546795 0 0 1 -1.166569,1.14223 1.1546795,1.1546795 0 0 1 -1.142666,-1.16614 l 1.154622,0.0115 z"
       transform="scale(-1,1)" />
    <path
       style="display:inline;fill:#363636;fill-opacity:1;stroke:none;stroke-width:0.76978648;stroke-linejoin:bevel;stroke-miterlimit:4;stroke-dasharray:none;stroke-opacity:1"
       id="path1012-4-2-3"
       sodipodi:type="arc"
       sodipodi:cx="-65.31768"
       sodipodi:cy="322.54166"
       sodipodi:rx="1.1546795"
       sodipodi:ry="1.1546795"
       sodipodi:start="3.1530595"
       sodipodi:end="3.1515759"
       d="m -66.472284,322.52842 a 1.1546795,1.1546795 0 0 1 1.167416,-1.14137 1.1546795,1.1546795 0 0 1 1.141801,1.16699 1.1546795,1.1546795 0 0 1 -1.166569,1.14223 1.1546795,1.1546795 0 0 1 -1.142666,-1.16614 l 1.154622,0.0115 z"
       transform="scale(-1,1)" />
    <rect
       style="display:inline;fill:#292929;fill-opacity:1;stroke:none;stroke-width:1;stroke-linejoin:bevel;stroke-miterlimit:4;stroke-dasharray:none;stroke-opacity:1"
       id="rect848-7-8-1"
       width="5"
       height="1"
       x="-65.472359"
       y="322.01401"
       transform="scale(-1,1)" />
    <rect
       style="display:inline;fill:#292929;fill-opacity:1;stroke:none;stroke-width:1;stroke-linejoin:bevel;stroke-miterlimit:4;stroke-dasharray:none;stroke-opacity:1"
       id="rect848-79-8"
       width="5"
       height="1"
       x="-65.472359"
       y="319.01401"
       transform="scale(-1,1)" />
    <path
       style="display:inline;fill:#363636;fill-opacity:1;stroke:none;stroke-width:0.76978648;stroke-linejoin:bevel;stroke-miterlimit:4;stroke-dasharray:none;stroke-opacity:1"
       id="path1012-8-0"
       sodipodi:type="arc"
       sodipodi:cx="-65.31768"
       sodipodi:cy="325.54166"
       sodipodi:rx="1.1546795"
       sodipodi:ry="1.1546795"
       sodipodi:start="3.1530595"
       sodipodi:end="3.1515759"
       d="m -66.472284,325.52842 a 1.1546795,1.1546795 0 0 1 1.167416,-1.14137 1.1546795,1.1546795 0 0 1 1.141801,1.16699 1.1546795,1.1546795 0 0 1 -1.166569,1.14223 1.1546795,1.1546795 0 0 1 -1.142666,-1.16614 l 1.154622,0.0115 z"
       transform="scale(-1,1)" />
    <path
       style="display:inline;fill:#363636;fill-opacity:1;stroke:none;stroke-width:0.76978648;stroke-linejoin:bevel;stroke-miterlimit:4;stroke-dasharray:none;stroke-opacity:1"
       id="path1012-4-7-0"
       sodipodi:type="arc"
       sodipodi:cx="-65.31768"
       sodipodi:cy="328.54166"
       sodipodi:rx="1.1546795"
       sodipodi:ry="1.1546795"
       sodipodi:start="3.1530595"
       sodipodi:end="3.1515759"
       d="m -66.472284,328.52842 a 1.1546795,1.1546795 0 0 1 1.167416,-1.14137 1.1546795,1.1546795 0 0 1 1.141801,1.16699 1.1546795,1.1546795 0 0 1 -1.166569,1.14223 1.1546795,1.1546795 0 0 1 -1.142666,-1.16614 l 1.154622,0.0115 z"
       transform="scale(-1,1)" />
    <rect
       style="display:inline;fill:#292929;fill-opacity:1;stroke:none;stroke-width:1;stroke-linejoin:bevel;stroke-miterlimit:4;stroke-dasharray:none;stroke-opacity:1"
       id="rect848-7-3-3"
       width="5"
       height="1"
       x="-65.472359"
       y="328.01401"
       transform="scale(-1,1)" />
    <rect
       style="display:inline;fill:#292929;fill-opacity:1;stroke:none;stroke-width:1;stroke-linejoin:bevel;stroke-miterlimit:4;stroke-dasharray:none;stroke-opacity:1"
       id="rect848-2-3"
       width="5"
       height="1"
       x="-65.472359"
       y="325.01401"
       transform="scale(-1,1)" />
    <rect
       style="display:inline;fill:#292929;fill-opacity:1;stroke:none;stroke-width:1;stroke-linejoin:bevel;stroke-miterlimit:4;stroke-dasharray:none;stroke-opacity:1"
       id="rect848-8"
       width="5"
       height="1"
       x="-65.472359"
       y="313.01401"
       transform="scale(-1,1)" />
    <g
       style="display:inline"
       id="g1206"
       transform="rotate(-90,189.2432,172.77082)">
      <path
         transform="scale(-1,1)"
         d="m -56.999925,26.514386 a 1.1546795,1.1546795 0 0 1 1.167415,-1.141368 1.1546795,1.1546795 0 0 1 1.141801,1.166992 1.1546795,1.1546795 0 0 1 -1.166568,1.142234 1.1546795,1.1546795 0 0 1 -1.142667,-1.166145 l 1.154622,0.01153 z"
         sodipodi:end="3.1515759"
         sodipodi:start="3.1530595"
         sodipodi:ry="1.1546795"
         sodipodi:rx="1.1546795"
         sodipodi:cy="26.527626"
         sodipodi:cx="-55.845322"
         sodipodi:type="arc"
         id="path1012-85-5"
         style="fill:#363636;fill-opacity:1;stroke:none;stroke-width:0.76978648;stroke-linejoin:bevel;stroke-miterlimit:4;stroke-dasharray:none;stroke-opacity:1" />
      <path
         transform="scale(-1,1)"
         d="m -56.999925,29.51439 a 1.1546795,1.1546795 0 0 1 1.167415,-1.141369 1.1546795,1.1546795 0 0 1 1.141801,1.166993 1.1546795,1.1546795 0 0 1 -1.166568,1.142233 1.1546795,1.1546795 0 0 1 -1.142667,-1.166144 l 1.154622,0.01153 z"
         sodipodi:end="3.1515759"
         sodipodi:start="3.1530595"
         sodipodi:ry="1.1546795"
         sodipodi:rx="1.1546795"
         sodipodi:cy="29.52763"
         sodipodi:cx="-55.845322"
         sodipodi:type="arc"
         id="path1012-4-4-1"
         style="fill:#363636;fill-opacity:1;stroke:none;stroke-width:0.76978648;stroke-linejoin:bevel;stroke-miterlimit:4;stroke-dasharray:none;stroke-opacity:1" />
      <rect
         transform="scale(-1,1)"
         y="29.000004"
         x="-56"
         height="1"
         width="5"
         id="rect848-7-2-2"
         style="fill:#292929;fill-opacity:1;stroke:none;stroke-width:1;stroke-linejoin:bevel;stroke-miterlimit:4;stroke-dasharray:none;stroke-opacity:1" />
      <path
         transform="scale(-1,1)"
         d="m -56.999925,32.51439 a 1.1546795,1.1546795 0 0 1 1.167415,-1.141369 1.1546795,1.1546795 0 0 1 1.141801,1.166993 1.1546795,1.1546795 0 0 1 -1.166568,1.142233 1.1546795,1.1546795 0 0 1 -1.142667,-1.166144 l 1.154622,0.01153 z"
         sodipodi:end="3.1515759"
         sodipodi:start="3.1530595"
         sodipodi:ry="1.1546795"
         sodipodi:rx="1.1546795"
         sodipodi:cy="32.52763"
         sodipodi:cx="-55.845322"
         sodipodi:type="arc"
         id="path1012-9-0-2"
         style="fill:#363636;fill-opacity:1;stroke:none;stroke-width:0.76978648;stroke-linejoin:bevel;stroke-miterlimit:4;stroke-dasharray:none;stroke-opacity:1" />
      <path
         transform="scale(-1,1)"
         d="m -56.999925,35.514393 a 1.1546795,1.1546795 0 0 1 1.167415,-1.141368 1.1546795,1.1546795 0 0 1 1.141801,1.166992 1.1546795,1.1546795 0 0 1 -1.166568,1.142234 1.1546795,1.1546795 0 0 1 -1.142667,-1.166145 l 1.154622,0.01153 z"
         sodipodi:end="3.1515759"
         sodipodi:start="3.1530595"
         sodipodi:ry="1.1546795"
         sodipodi:rx="1.1546795"
         sodipodi:cy="35.527634"
         sodipodi:cx="-55.845322"
         sodipodi:type="arc"
         id="path1012-4-2-3-2"
         style="fill:#363636;fill-opacity:1;stroke:none;stroke-width:0.76978648;stroke-linejoin:bevel;stroke-miterlimit:4;stroke-dasharray:none;stroke-opacity:1" />
      <rect
         transform="scale(-1,1)"
         y="35.000008"
         x="-56"
         height="1"
         width="5"
         id="rect848-7-8-1-5"
         style="fill:#292929;fill-opacity:1;stroke:none;stroke-width:1;stroke-linejoin:bevel;stroke-miterlimit:4;stroke-dasharray:none;stroke-opacity:1" />
      <rect
         transform="scale(-1,1)"
         y="32.000004"
         x="-56"
         height="1"
         width="5"
         id="rect848-79-8-3"
         style="fill:#292929;fill-opacity:1;stroke:none;stroke-width:1;stroke-linejoin:bevel;stroke-miterlimit:4;stroke-dasharray:none;stroke-opacity:1" />
      <path
         transform="scale(-1,1)"
         d="m -56.999925,38.51439 a 1.1546795,1.1546795 0 0 1 1.167415,-1.141369 1.1546795,1.1546795 0 0 1 1.141801,1.166993 1.1546795,1.1546795 0 0 1 -1.166568,1.142233 1.1546795,1.1546795 0 0 1 -1.142667,-1.166144 l 1.154622,0.01153 z"
         sodipodi:end="3.1515759"
         sodipodi:start="3.1530595"
         sodipodi:ry="1.1546795"
         sodipodi:rx="1.1546795"
         sodipodi:cy="38.52763"
         sodipodi:cx="-55.845322"
         sodipodi:type="arc"
         id="path1012-8-0-2"
         style="fill:#363636;fill-opacity:1;stroke:none;stroke-width:0.76978648;stroke-linejoin:bevel;stroke-miterlimit:4;stroke-dasharray:none;stroke-opacity:1" />
      <path
         transform="scale(-1,1)"
         d="m -56.999925,41.514393 a 1.1546795,1.1546795 0 0 1 1.167415,-1.141368 1.1546795,1.1546795 0 0 1 1.141801,1.166992 1.1546795,1.1546795 0 0 1 -1.166568,1.142234 1.1546795,1.1546795 0 0 1 -1.142667,-1.166145 l 1.154622,0.01153 z"
         sodipodi:end="3.1515759"
         sodipodi:start="3.1530595"
         sodipodi:ry="1.1546795"
         sodipodi:rx="1.1546795"
         sodipodi:cy="41.527634"
         sodipodi:cx="-55.845322"
         sodipodi:type="arc"
         id="path1012-4-7-0-0"
         style="fill:#363636;fill-opacity:1;stroke:none;stroke-width:0.76978648;stroke-linejoin:bevel;stroke-miterlimit:4;stroke-dasharray:none;stroke-opacity:1" />
      <rect
         transform="scale(-1,1)"
         y="41.000008"
         x="-56"
         height="1"
         width="5"
         id="rect848-7-3-3-4"
         style="fill:#292929;fill-opacity:1;stroke:none;stroke-width:1;stroke-linejoin:bevel;stroke-miterlimit:4;stroke-dasharray:none;stroke-opacity:1" />
      <rect
         transform="scale(-1,1)"
         y="38.000004"
         x="-56"
         height="1"
         width="5"
         id="rect848-2-3-1"
         style="fill:#292929;fill-opacity:1;stroke:none;stroke-width:1;stroke-linejoin:bevel;stroke-miterlimit:4;stroke-dasharray:none;stroke-opacity:1" />
      <rect
         transform="scale(-1,1)"
         y="26"
         x="-56"
         height="1"
         width="5"
         id="rect848-8-2"
         style="fill:#292929;fill-opacity:1;stroke:none;stroke-width:1;stroke-linejoin:bevel;stroke-miterlimit:4;stroke-dasharray:none;stroke-opacity:1" />
    </g>
    <path
       style="fill:none;stroke:#fdfdfd;stroke-width:1px;stroke-linecap:butt;stroke-linejoin:miter;stroke-opacity:1"
       d="m 47.999999,317.54166 v 8 l 7,-4 z"
       id="path1597"
       inkscape:connector-curvature="0" />
  </g>
</svg>
